# xmcd
#
# Track frame offsets: 
#        150
#        33438
#        58694
#        87966
#        119829
#        150051
#        174787
#        200257
#        230593
#        253702
#        271737
#        303531
#        335960
#
# Disc length: 4681 seconds
#
# Revision: 0
# Processed by: cddbd v1.5.2PL0 Copyright (c) Steve Scherf et al.
# Submitted via: ExactAudioCopy v1.0b4
#
DISCID=ad12470d
DTITLE=Phil Guy - It's A Real Mutha
DYEAR=2009
DGENRE=Blues
TTITLE0=Tina Nu
TTITLE1=Steppin' Out
TTITLE2=Where Can I Go
TTITLE3=Professor's Boogie
TTITLE4=Good Thing
TTITLE5=Stone Crazy
TTITLE6=It'a A Real Mutha
TTITLE7=Born To Get Down
TTITLE8=I Once Was A Gambler
TTITLE9=Love Is Like Quicksand
TTITLE10=Texas Flood
TTITLE11=Tina Nu
TTITLE12=I Once Was A Gambler video - Interview
EXTD=
EXTT0=
EXTT1=
EXTT2=
EXTT3=
EXTT4=
EXTT5=
EXTT6=
EXTT7=
EXTT8=
EXTT9=
EXTT10=
EXTT11=
EXTT12=
PLAYORDER=
